<mxfile host="app.diagrams.net" modified="2024-05-09T05:53:16.431Z" agent="Mozilla/5.0 (Windows NT 10.0; Win64; x64) AppleWebKit/537.36 (KHTML, like Gecko) Chrome/124.0.0.0 Safari/537.36" etag="wo1agqu0Es0hxAc8sne0" version="24.3.1" type="device">
  <diagram name="Page-1" id="tS-0aJsubXYgHFhca26n">
    <mxGraphModel dx="3176" dy="1816" grid="1" gridSize="10" guides="1" tooltips="1" connect="1" arrows="1" fold="1" page="1" pageScale="1" pageWidth="827" pageHeight="1169" math="0" shadow="0">
      <root>
        <mxCell id="0" />
        <mxCell id="1" parent="0" />
        <mxCell id="lX1XEiu-5pXYltvLHUYr-7" style="edgeStyle=orthogonalEdgeStyle;rounded=0;orthogonalLoop=1;jettySize=auto;html=1;endArrow=none;endFill=0;" edge="1" parent="1" source="lX1XEiu-5pXYltvLHUYr-1" target="lX1XEiu-5pXYltvLHUYr-6">
          <mxGeometry relative="1" as="geometry" />
        </mxCell>
        <mxCell id="lX1XEiu-5pXYltvLHUYr-8" style="edgeStyle=orthogonalEdgeStyle;rounded=0;orthogonalLoop=1;jettySize=auto;html=1;entryX=1;entryY=0.5;entryDx=0;entryDy=0;endArrow=none;endFill=0;" edge="1" parent="1" source="lX1XEiu-5pXYltvLHUYr-1" target="lX1XEiu-5pXYltvLHUYr-5">
          <mxGeometry relative="1" as="geometry" />
        </mxCell>
        <mxCell id="lX1XEiu-5pXYltvLHUYr-9" style="edgeStyle=orthogonalEdgeStyle;rounded=0;orthogonalLoop=1;jettySize=auto;html=1;endArrow=none;endFill=0;" edge="1" parent="1" source="lX1XEiu-5pXYltvLHUYr-1" target="lX1XEiu-5pXYltvLHUYr-4">
          <mxGeometry relative="1" as="geometry" />
        </mxCell>
        <mxCell id="lX1XEiu-5pXYltvLHUYr-10" style="edgeStyle=orthogonalEdgeStyle;rounded=0;orthogonalLoop=1;jettySize=auto;html=1;entryX=1;entryY=0.5;entryDx=0;entryDy=0;endArrow=none;endFill=0;" edge="1" parent="1" source="lX1XEiu-5pXYltvLHUYr-1" target="lX1XEiu-5pXYltvLHUYr-3">
          <mxGeometry relative="1" as="geometry" />
        </mxCell>
        <mxCell id="lX1XEiu-5pXYltvLHUYr-11" style="edgeStyle=orthogonalEdgeStyle;rounded=0;orthogonalLoop=1;jettySize=auto;html=1;endArrow=none;endFill=0;" edge="1" parent="1" source="lX1XEiu-5pXYltvLHUYr-1" target="lX1XEiu-5pXYltvLHUYr-2">
          <mxGeometry relative="1" as="geometry" />
        </mxCell>
        <mxCell id="lX1XEiu-5pXYltvLHUYr-25" value="" style="edgeStyle=orthogonalEdgeStyle;rounded=0;orthogonalLoop=1;jettySize=auto;html=1;endArrow=none;endFill=0;" edge="1" parent="1" source="lX1XEiu-5pXYltvLHUYr-1" target="lX1XEiu-5pXYltvLHUYr-24">
          <mxGeometry relative="1" as="geometry" />
        </mxCell>
        <mxCell id="lX1XEiu-5pXYltvLHUYr-78" value="1" style="edgeLabel;html=1;align=center;verticalAlign=middle;resizable=0;points=[];" vertex="1" connectable="0" parent="lX1XEiu-5pXYltvLHUYr-25">
          <mxGeometry x="0.0778" relative="1" as="geometry">
            <mxPoint x="-1" y="-16" as="offset" />
          </mxGeometry>
        </mxCell>
        <mxCell id="lX1XEiu-5pXYltvLHUYr-1" value="User" style="rounded=0;whiteSpace=wrap;html=1;" vertex="1" parent="1">
          <mxGeometry x="313" y="210" width="120" height="60" as="geometry" />
        </mxCell>
        <mxCell id="lX1XEiu-5pXYltvLHUYr-2" value="&lt;u&gt;userid&lt;/u&gt;" style="ellipse;whiteSpace=wrap;html=1;" vertex="1" parent="1">
          <mxGeometry x="313" y="70" width="120" height="80" as="geometry" />
        </mxCell>
        <mxCell id="lX1XEiu-5pXYltvLHUYr-3" value="username" style="ellipse;whiteSpace=wrap;html=1;" vertex="1" parent="1">
          <mxGeometry x="153" y="70" width="120" height="80" as="geometry" />
        </mxCell>
        <mxCell id="lX1XEiu-5pXYltvLHUYr-4" value="Name" style="ellipse;whiteSpace=wrap;html=1;" vertex="1" parent="1">
          <mxGeometry x="153" y="200" width="120" height="80" as="geometry" />
        </mxCell>
        <mxCell id="lX1XEiu-5pXYltvLHUYr-5" value="Email" style="ellipse;whiteSpace=wrap;html=1;" vertex="1" parent="1">
          <mxGeometry x="153" y="330" width="120" height="80" as="geometry" />
        </mxCell>
        <mxCell id="lX1XEiu-5pXYltvLHUYr-6" value="Password" style="ellipse;whiteSpace=wrap;html=1;" vertex="1" parent="1">
          <mxGeometry x="313" y="330" width="120" height="80" as="geometry" />
        </mxCell>
        <mxCell id="lX1XEiu-5pXYltvLHUYr-13" style="edgeStyle=orthogonalEdgeStyle;rounded=0;orthogonalLoop=1;jettySize=auto;html=1;endArrow=none;endFill=0;" edge="1" parent="1" source="lX1XEiu-5pXYltvLHUYr-18" target="lX1XEiu-5pXYltvLHUYr-23">
          <mxGeometry relative="1" as="geometry" />
        </mxCell>
        <mxCell id="lX1XEiu-5pXYltvLHUYr-17" style="edgeStyle=orthogonalEdgeStyle;rounded=0;orthogonalLoop=1;jettySize=auto;html=1;endArrow=none;endFill=0;" edge="1" parent="1" source="lX1XEiu-5pXYltvLHUYr-18" target="lX1XEiu-5pXYltvLHUYr-19">
          <mxGeometry relative="1" as="geometry" />
        </mxCell>
        <mxCell id="lX1XEiu-5pXYltvLHUYr-70" value="" style="edgeStyle=orthogonalEdgeStyle;rounded=0;orthogonalLoop=1;jettySize=auto;html=1;endArrow=none;endFill=0;" edge="1" parent="1" source="lX1XEiu-5pXYltvLHUYr-18" target="lX1XEiu-5pXYltvLHUYr-69">
          <mxGeometry relative="1" as="geometry" />
        </mxCell>
        <mxCell id="lX1XEiu-5pXYltvLHUYr-80" value="1" style="edgeLabel;html=1;align=center;verticalAlign=middle;resizable=0;points=[];" vertex="1" connectable="0" parent="lX1XEiu-5pXYltvLHUYr-70">
          <mxGeometry x="0.2296" y="1" relative="1" as="geometry">
            <mxPoint x="10" as="offset" />
          </mxGeometry>
        </mxCell>
        <mxCell id="lX1XEiu-5pXYltvLHUYr-18" value="UserAccount" style="rounded=0;whiteSpace=wrap;html=1;" vertex="1" parent="1">
          <mxGeometry x="703" y="210" width="120" height="60" as="geometry" />
        </mxCell>
        <mxCell id="lX1XEiu-5pXYltvLHUYr-19" value="&lt;u&gt;userid&lt;/u&gt;" style="ellipse;whiteSpace=wrap;html=1;" vertex="1" parent="1">
          <mxGeometry x="703" y="70" width="120" height="80" as="geometry" />
        </mxCell>
        <mxCell id="lX1XEiu-5pXYltvLHUYr-23" value="accountno" style="ellipse;whiteSpace=wrap;html=1;" vertex="1" parent="1">
          <mxGeometry x="703" y="330" width="120" height="80" as="geometry" />
        </mxCell>
        <mxCell id="lX1XEiu-5pXYltvLHUYr-26" style="edgeStyle=orthogonalEdgeStyle;rounded=0;orthogonalLoop=1;jettySize=auto;html=1;endArrow=none;endFill=0;" edge="1" parent="1" source="lX1XEiu-5pXYltvLHUYr-24" target="lX1XEiu-5pXYltvLHUYr-18">
          <mxGeometry relative="1" as="geometry">
            <mxPoint x="653" y="249.9999999999999" as="targetPoint" />
          </mxGeometry>
        </mxCell>
        <mxCell id="lX1XEiu-5pXYltvLHUYr-79" value="M" style="edgeLabel;html=1;align=center;verticalAlign=middle;resizable=0;points=[];" vertex="1" connectable="0" parent="lX1XEiu-5pXYltvLHUYr-26">
          <mxGeometry x="0.0247" y="1" relative="1" as="geometry">
            <mxPoint x="-1" y="-14" as="offset" />
          </mxGeometry>
        </mxCell>
        <mxCell id="lX1XEiu-5pXYltvLHUYr-24" value="Has" style="rhombus;whiteSpace=wrap;html=1;rounded=0;" vertex="1" parent="1">
          <mxGeometry x="533" y="200" width="80" height="80" as="geometry" />
        </mxCell>
        <mxCell id="lX1XEiu-5pXYltvLHUYr-37" style="edgeStyle=orthogonalEdgeStyle;rounded=0;orthogonalLoop=1;jettySize=auto;html=1;endArrow=none;endFill=0;" edge="1" parent="1" source="lX1XEiu-5pXYltvLHUYr-39" target="lX1XEiu-5pXYltvLHUYr-41">
          <mxGeometry relative="1" as="geometry" />
        </mxCell>
        <mxCell id="lX1XEiu-5pXYltvLHUYr-38" style="edgeStyle=orthogonalEdgeStyle;rounded=0;orthogonalLoop=1;jettySize=auto;html=1;endArrow=none;endFill=0;" edge="1" parent="1" source="lX1XEiu-5pXYltvLHUYr-39" target="lX1XEiu-5pXYltvLHUYr-40">
          <mxGeometry relative="1" as="geometry" />
        </mxCell>
        <mxCell id="lX1XEiu-5pXYltvLHUYr-76" style="edgeStyle=orthogonalEdgeStyle;rounded=0;orthogonalLoop=1;jettySize=auto;html=1;entryX=0.5;entryY=1;entryDx=0;entryDy=0;endArrow=none;endFill=0;" edge="1" parent="1" source="lX1XEiu-5pXYltvLHUYr-39" target="lX1XEiu-5pXYltvLHUYr-74">
          <mxGeometry relative="1" as="geometry">
            <Array as="points">
              <mxPoint x="1283" y="740" />
            </Array>
          </mxGeometry>
        </mxCell>
        <mxCell id="lX1XEiu-5pXYltvLHUYr-84" value="M" style="edgeLabel;html=1;align=center;verticalAlign=middle;resizable=0;points=[];" vertex="1" connectable="0" parent="lX1XEiu-5pXYltvLHUYr-76">
          <mxGeometry x="0.5893" y="-3" relative="1" as="geometry">
            <mxPoint x="5" as="offset" />
          </mxGeometry>
        </mxCell>
        <mxCell id="lX1XEiu-5pXYltvLHUYr-39" value="Account" style="rounded=0;whiteSpace=wrap;html=1;" vertex="1" parent="1">
          <mxGeometry x="1066" y="740" width="120" height="60" as="geometry" />
        </mxCell>
        <mxCell id="lX1XEiu-5pXYltvLHUYr-40" value="&lt;u&gt;accountno&lt;/u&gt;" style="ellipse;whiteSpace=wrap;html=1;" vertex="1" parent="1">
          <mxGeometry x="1066" y="600" width="120" height="80" as="geometry" />
        </mxCell>
        <mxCell id="lX1XEiu-5pXYltvLHUYr-41" value="bankid" style="ellipse;whiteSpace=wrap;html=1;" vertex="1" parent="1">
          <mxGeometry x="1066" y="860" width="120" height="80" as="geometry" />
        </mxCell>
        <mxCell id="lX1XEiu-5pXYltvLHUYr-43" style="edgeStyle=orthogonalEdgeStyle;rounded=0;orthogonalLoop=1;jettySize=auto;html=1;endArrow=none;endFill=0;" edge="1" parent="1" source="lX1XEiu-5pXYltvLHUYr-42" target="lX1XEiu-5pXYltvLHUYr-39">
          <mxGeometry relative="1" as="geometry">
            <Array as="points">
              <mxPoint x="1013" y="900" />
              <mxPoint x="1013" y="770" />
            </Array>
          </mxGeometry>
        </mxCell>
        <mxCell id="lX1XEiu-5pXYltvLHUYr-42" value="balance" style="ellipse;whiteSpace=wrap;html=1;" vertex="1" parent="1">
          <mxGeometry x="873" y="860" width="120" height="80" as="geometry" />
        </mxCell>
        <mxCell id="lX1XEiu-5pXYltvLHUYr-44" style="edgeStyle=orthogonalEdgeStyle;rounded=0;orthogonalLoop=1;jettySize=auto;html=1;endArrow=none;endFill=0;" edge="1" parent="1" source="lX1XEiu-5pXYltvLHUYr-46" target="lX1XEiu-5pXYltvLHUYr-48">
          <mxGeometry relative="1" as="geometry" />
        </mxCell>
        <mxCell id="lX1XEiu-5pXYltvLHUYr-45" style="edgeStyle=orthogonalEdgeStyle;rounded=0;orthogonalLoop=1;jettySize=auto;html=1;endArrow=none;endFill=0;" edge="1" parent="1" source="lX1XEiu-5pXYltvLHUYr-46" target="lX1XEiu-5pXYltvLHUYr-47">
          <mxGeometry relative="1" as="geometry" />
        </mxCell>
        <mxCell id="lX1XEiu-5pXYltvLHUYr-75" value="" style="edgeStyle=orthogonalEdgeStyle;rounded=0;orthogonalLoop=1;jettySize=auto;html=1;endArrow=none;endFill=0;" edge="1" parent="1" source="lX1XEiu-5pXYltvLHUYr-46" target="lX1XEiu-5pXYltvLHUYr-74">
          <mxGeometry relative="1" as="geometry">
            <Array as="points">
              <mxPoint x="1283" y="310" />
            </Array>
          </mxGeometry>
        </mxCell>
        <mxCell id="lX1XEiu-5pXYltvLHUYr-85" value="1" style="edgeLabel;html=1;align=center;verticalAlign=middle;resizable=0;points=[];" vertex="1" connectable="0" parent="lX1XEiu-5pXYltvLHUYr-75">
          <mxGeometry x="0.2928" y="3" relative="1" as="geometry">
            <mxPoint x="6" as="offset" />
          </mxGeometry>
        </mxCell>
        <mxCell id="lX1XEiu-5pXYltvLHUYr-46" value="Bank" style="rounded=0;whiteSpace=wrap;html=1;" vertex="1" parent="1">
          <mxGeometry x="1353" y="260" width="120" height="60" as="geometry" />
        </mxCell>
        <mxCell id="lX1XEiu-5pXYltvLHUYr-47" value="&lt;u&gt;bankid&lt;/u&gt;" style="ellipse;whiteSpace=wrap;html=1;" vertex="1" parent="1">
          <mxGeometry x="1353" y="120" width="120" height="80" as="geometry" />
        </mxCell>
        <mxCell id="lX1XEiu-5pXYltvLHUYr-48" value="bankname" style="ellipse;whiteSpace=wrap;html=1;" vertex="1" parent="1">
          <mxGeometry x="1353" y="380" width="120" height="80" as="geometry" />
        </mxCell>
        <mxCell id="lX1XEiu-5pXYltvLHUYr-49" style="edgeStyle=orthogonalEdgeStyle;rounded=0;orthogonalLoop=1;jettySize=auto;html=1;endArrow=none;endFill=0;" edge="1" parent="1" source="lX1XEiu-5pXYltvLHUYr-50" target="lX1XEiu-5pXYltvLHUYr-46">
          <mxGeometry relative="1" as="geometry">
            <Array as="points">
              <mxPoint x="1283" y="160" />
              <mxPoint x="1283" y="290" />
            </Array>
          </mxGeometry>
        </mxCell>
        <mxCell id="lX1XEiu-5pXYltvLHUYr-50" value="branch" style="ellipse;whiteSpace=wrap;html=1;" vertex="1" parent="1">
          <mxGeometry x="1133" y="120" width="120" height="80" as="geometry" />
        </mxCell>
        <mxCell id="lX1XEiu-5pXYltvLHUYr-51" style="edgeStyle=orthogonalEdgeStyle;rounded=0;orthogonalLoop=1;jettySize=auto;html=1;endArrow=none;endFill=0;" edge="1" parent="1" source="lX1XEiu-5pXYltvLHUYr-56" target="lX1XEiu-5pXYltvLHUYr-61">
          <mxGeometry relative="1" as="geometry" />
        </mxCell>
        <mxCell id="lX1XEiu-5pXYltvLHUYr-52" style="edgeStyle=orthogonalEdgeStyle;rounded=0;orthogonalLoop=1;jettySize=auto;html=1;entryX=1;entryY=0.5;entryDx=0;entryDy=0;endArrow=none;endFill=0;" edge="1" parent="1" source="lX1XEiu-5pXYltvLHUYr-56" target="lX1XEiu-5pXYltvLHUYr-60">
          <mxGeometry relative="1" as="geometry">
            <Array as="points">
              <mxPoint x="388" y="790" />
              <mxPoint x="388" y="900" />
            </Array>
          </mxGeometry>
        </mxCell>
        <mxCell id="lX1XEiu-5pXYltvLHUYr-53" style="edgeStyle=orthogonalEdgeStyle;rounded=0;orthogonalLoop=1;jettySize=auto;html=1;endArrow=none;endFill=0;" edge="1" parent="1" source="lX1XEiu-5pXYltvLHUYr-56" target="lX1XEiu-5pXYltvLHUYr-59">
          <mxGeometry relative="1" as="geometry" />
        </mxCell>
        <mxCell id="lX1XEiu-5pXYltvLHUYr-54" style="edgeStyle=orthogonalEdgeStyle;rounded=0;orthogonalLoop=1;jettySize=auto;html=1;entryX=1;entryY=0.5;entryDx=0;entryDy=0;endArrow=none;endFill=0;exitX=0;exitY=0.25;exitDx=0;exitDy=0;" edge="1" parent="1" source="lX1XEiu-5pXYltvLHUYr-56" target="lX1XEiu-5pXYltvLHUYr-58">
          <mxGeometry relative="1" as="geometry">
            <mxPoint x="408" y="765" as="sourcePoint" />
            <mxPoint x="198.00000000000023" y="635" as="targetPoint" />
            <Array as="points">
              <mxPoint x="388" y="755" />
              <mxPoint x="388" y="635" />
              <mxPoint x="338" y="635" />
            </Array>
          </mxGeometry>
        </mxCell>
        <mxCell id="lX1XEiu-5pXYltvLHUYr-55" style="edgeStyle=orthogonalEdgeStyle;rounded=0;orthogonalLoop=1;jettySize=auto;html=1;endArrow=none;endFill=0;" edge="1" parent="1" source="lX1XEiu-5pXYltvLHUYr-56" target="lX1XEiu-5pXYltvLHUYr-57">
          <mxGeometry relative="1" as="geometry" />
        </mxCell>
        <mxCell id="lX1XEiu-5pXYltvLHUYr-56" value="Transactions" style="rounded=0;whiteSpace=wrap;html=1;" vertex="1" parent="1">
          <mxGeometry x="428" y="740" width="120" height="60" as="geometry" />
        </mxCell>
        <mxCell id="lX1XEiu-5pXYltvLHUYr-57" value="&lt;u&gt;transactionid&lt;/u&gt;" style="ellipse;whiteSpace=wrap;html=1;" vertex="1" parent="1">
          <mxGeometry x="428" y="600" width="120" height="80" as="geometry" />
        </mxCell>
        <mxCell id="lX1XEiu-5pXYltvLHUYr-58" value="sender_account_no" style="ellipse;whiteSpace=wrap;html=1;" vertex="1" parent="1">
          <mxGeometry x="218" y="600" width="120" height="80" as="geometry" />
        </mxCell>
        <mxCell id="lX1XEiu-5pXYltvLHUYr-59" value="receiver_account_no" style="ellipse;whiteSpace=wrap;html=1;" vertex="1" parent="1">
          <mxGeometry x="218" y="730" width="120" height="80" as="geometry" />
        </mxCell>
        <mxCell id="lX1XEiu-5pXYltvLHUYr-60" value="date" style="ellipse;whiteSpace=wrap;html=1;" vertex="1" parent="1">
          <mxGeometry x="218" y="860" width="120" height="80" as="geometry" />
        </mxCell>
        <mxCell id="lX1XEiu-5pXYltvLHUYr-61" value="amount" style="ellipse;whiteSpace=wrap;html=1;" vertex="1" parent="1">
          <mxGeometry x="428" y="860" width="120" height="80" as="geometry" />
        </mxCell>
        <mxCell id="lX1XEiu-5pXYltvLHUYr-65" style="edgeStyle=orthogonalEdgeStyle;rounded=0;orthogonalLoop=1;jettySize=auto;html=1;endArrow=none;endFill=0;entryX=0.837;entryY=-0.012;entryDx=0;entryDy=0;entryPerimeter=0;" edge="1" parent="1" source="lX1XEiu-5pXYltvLHUYr-63" target="lX1XEiu-5pXYltvLHUYr-56">
          <mxGeometry relative="1" as="geometry">
            <mxPoint x="393" y="740" as="targetPoint" />
            <Array as="points">
              <mxPoint x="528" y="700" />
            </Array>
          </mxGeometry>
        </mxCell>
        <mxCell id="lX1XEiu-5pXYltvLHUYr-82" value="M" style="edgeLabel;html=1;align=center;verticalAlign=middle;resizable=0;points=[];" vertex="1" connectable="0" parent="lX1XEiu-5pXYltvLHUYr-65">
          <mxGeometry x="-0.1232" y="-2" relative="1" as="geometry">
            <mxPoint y="-18" as="offset" />
          </mxGeometry>
        </mxCell>
        <mxCell id="lX1XEiu-5pXYltvLHUYr-77" style="edgeStyle=orthogonalEdgeStyle;rounded=0;orthogonalLoop=1;jettySize=auto;html=1;entryX=0.25;entryY=0;entryDx=0;entryDy=0;endArrow=none;endFill=0;" edge="1" parent="1" source="lX1XEiu-5pXYltvLHUYr-63" target="lX1XEiu-5pXYltvLHUYr-39">
          <mxGeometry relative="1" as="geometry" />
        </mxCell>
        <mxCell id="lX1XEiu-5pXYltvLHUYr-83" value="1" style="edgeLabel;html=1;align=center;verticalAlign=middle;resizable=0;points=[];" vertex="1" connectable="0" parent="lX1XEiu-5pXYltvLHUYr-77">
          <mxGeometry x="-0.1056" relative="1" as="geometry">
            <mxPoint x="-2" y="-20" as="offset" />
          </mxGeometry>
        </mxCell>
        <mxCell id="lX1XEiu-5pXYltvLHUYr-63" value="Happens on" style="rhombus;whiteSpace=wrap;html=1;rounded=0;" vertex="1" parent="1">
          <mxGeometry x="693" y="660" width="80" height="80" as="geometry" />
        </mxCell>
        <mxCell id="lX1XEiu-5pXYltvLHUYr-71" style="edgeStyle=orthogonalEdgeStyle;rounded=0;orthogonalLoop=1;jettySize=auto;html=1;endArrow=none;endFill=0;" edge="1" parent="1" source="lX1XEiu-5pXYltvLHUYr-69">
          <mxGeometry relative="1" as="geometry">
            <mxPoint x="1066" y="750" as="targetPoint" />
            <Array as="points">
              <mxPoint x="1013" y="490" />
              <mxPoint x="1013" y="750" />
              <mxPoint x="1066" y="750" />
            </Array>
          </mxGeometry>
        </mxCell>
        <mxCell id="lX1XEiu-5pXYltvLHUYr-81" value="1" style="edgeLabel;html=1;align=center;verticalAlign=middle;resizable=0;points=[];" vertex="1" connectable="0" parent="lX1XEiu-5pXYltvLHUYr-71">
          <mxGeometry x="-0.3473" relative="1" as="geometry">
            <mxPoint x="11" y="-1" as="offset" />
          </mxGeometry>
        </mxCell>
        <mxCell id="lX1XEiu-5pXYltvLHUYr-69" value="Contains" style="rhombus;whiteSpace=wrap;html=1;rounded=0;" vertex="1" parent="1">
          <mxGeometry x="880" y="450" width="80" height="80" as="geometry" />
        </mxCell>
        <mxCell id="lX1XEiu-5pXYltvLHUYr-74" value="Be&lt;span style=&quot;background-color: initial;&quot;&gt;longs&lt;/span&gt;" style="rhombus;whiteSpace=wrap;html=1;rounded=0;" vertex="1" parent="1">
          <mxGeometry x="1243" y="450" width="80" height="80" as="geometry" />
        </mxCell>
      </root>
    </mxGraphModel>
  </diagram>
</mxfile>
